<?xml version="1.0" encoding="iso-8859-1"?>
<!-- Uploaded to: SVG Repo, www.svgrepo.com, Generator: SVG Repo Mixer Tools -->
<svg height="800px" width="800px" version="1.1" id="Layer_1" xmlns="http://www.w3.org/2000/svg" xmlns:xlink="http://www.w3.org/1999/xlink" 
	 viewBox="0 0 512.001 512.001" xml:space="preserve">
<path style="fill:#5286FA;" d="M449.848,217.135H207.19l224.186-92.86c11.283-4.675,16.642-17.611,11.969-28.895l-33.852-81.728
	c-2.244-5.42-6.549-9.725-11.969-11.969c-5.42-2.244-11.507-2.244-16.925,0L53.696,137.091
	c-11.283,4.675-16.642,17.611-11.969,28.895l32.168,77.664v84.06v162.176c0,12.213,9.902,22.115,22.115,22.115h176.919h176.919
	c12.213,0,22.115-9.902,22.115-22.115V327.71v-88.459C471.963,227.035,462.061,217.135,449.848,217.135z M344.695,64.429
	l32.398-13.421l16.925,40.864l-73.261,30.346L344.695,64.429z M91.053,169.49l73.262-30.346l-23.937,57.789l-32.4,13.419
	L91.053,169.49z M153.195,305.594h-35.07v-44.23h79.299L153.195,305.594z M222.106,115.207l64.799-26.842l-23.936,57.789
	l-64.801,26.842L222.106,115.207z M272.929,305.594h-57.185l44.23-44.23h70.139l-44.23,44.23H272.929z M348.433,305.594l44.23-44.23
	h35.07v44.23H348.433z"/>
<g>
	<polygon style="fill:#00D7DF;" points="392.663,261.364 348.433,305.594 427.733,305.594 427.733,261.364 	"/>
	<polygon style="fill:#00D7DF;" points="215.744,305.594 272.929,305.594 285.884,305.594 330.113,261.364 259.974,261.364 	"/>
	<polygon style="fill:#00D7DF;" points="118.125,305.594 153.195,305.594 197.424,261.364 118.125,261.364 	"/>
</g>
<g>
	<polygon style="fill:#00E7F0;" points="286.906,88.366 222.106,115.207 198.167,172.996 262.968,146.155 	"/>
	<polygon style="fill:#00E7F0;" points="164.316,139.144 91.053,169.49 107.979,210.354 140.378,196.933 	"/>
	<polygon style="fill:#00E7F0;" points="377.093,51.009 344.695,64.429 320.757,122.219 394.018,91.873 	"/>
</g>
<path style="fill:#3D6DEB;" d="M449.848,217.135H207.19l224.184-92.86c11.283-4.675,16.642-17.611,11.969-28.895l-33.85-81.728
	c-2.244-5.42-6.549-9.725-11.969-11.969c-5.42-2.244-11.507-2.244-16.925,0L53.696,137.091
	c-11.283,4.675-16.642,17.611-11.969,28.895l32.168,77.664v84.06v162.176c0,12.213,9.902,22.115,22.115,22.115h176.919v-22.115
	v-22.115V349.825v-22.107c0-0.001,0-0.004,0-0.007s0-0.004,0-0.007v-22.107h-57.185l44.23-44.23h70.139l-44.23,44.23h31.275h31.275
	l44.23-44.23h35.07v44.23h22.115c12.213,0,22.115,9.902,22.115,22.115v-88.459C471.963,227.035,462.061,217.135,449.848,217.135z
	 M320.757,122.219l23.937-57.789l32.398-13.421l16.925,40.864L320.757,122.219z M262.968,146.155l-64.801,26.842l23.937-57.789
	l64.799-26.842L262.968,146.155z M140.378,196.933l-32.4,13.419l-16.925-40.864l73.262-30.346L140.378,196.933z M118.125,305.594
	v-44.23h79.299l-44.23,44.23H118.125z"/>
</svg>